<svg width="16" height="16" viewBox="0 0 16 16" version="1.1" xmlns="http://www.w3.org/2000/svg" xmlns:xlink="http://www.w3.org/1999/xlink"><title>status-done</title><desc>Created with Sketch.</desc><g id="browserAction---popover" stroke="none" stroke-width="1" fill="none" fill-rule="evenodd" transform="translate(-953.000000, -164.000000)"><g id="popover" transform="translate(937.000000, 69.000000)"><g id="status-done" transform="translate(16.000000, 95.000000)"><path d="M8,0 C3.582,0 0,3.582 0,8 C0,12.418 3.582,16 8,16 C12.418,16 16,12.418 16,8 C16,3.582 12.418,0 8,0 Z" id="circle" fill="#97CA5E" fill-rule="nonzero"/><path d="M11.72,6.633 L7.662,10.69 C7.288,11.064 6.683,11.064 6.309,10.69 L4.28,8.662 C3.906,8.289 3.906,7.683 4.28,7.309 C4.654,6.935 5.259,6.935 5.633,7.309 L6.986,8.662 L10.368,5.28 C10.742,4.906 11.347,4.906 11.721,5.28 C12.095,5.654 12.094,6.259 11.72,6.633 Z" id="check" fill="#FFF"/></g></g></g></svg>