<svg width="16" height="16" viewBox="0 0 16 16" version="1.1" xmlns="http://www.w3.org/2000/svg" xmlns:xlink="http://www.w3.org/1999/xlink"><title>status-need-help</title><desc>Created with Sketch.</desc><g id="browserAction---popover" stroke="none" stroke-width="1" fill="none" fill-rule="evenodd" transform="translate(-953.000000, -140.000000)"><g id="popover" transform="translate(937.000000, 69.000000)"><g id="status-need-help" transform="translate(16.000000, 71.000000)"><path d="M8,0 C3.582,0 0,3.582 0,8 C0,12.418 3.582,16 8,16 C12.418,16 16,12.418 16,8 C16,3.582 12.418,0 8,0 Z" id="circle" fill="#FCBA44"/><path d="M9,12.5 C9,12.776 8.776,13 8.5,13 L7.5,13 C7.224,13 7,12.776 7,12.5 L7,11.5 C7,11.224 7.224,11 7.5,11 L8.5,11 C8.776,11 9,11.224 9,11.5 L9,12.5 Z" id="dot" fill="#FFF"/><path d="M9,8.828 L9,9.5 C9,9.776 8.776,10 8.5,10 L7.5,10 C7.224,10 7,9.776 7,9.5 L7,8 C7,7.447 7.125,7 7.75,7 C8.164,7 8.5,7 8.5,7 C8.776,7 9,6.776 9,6.5 L9,5.5 C9,5.224 8.776,5 8.5,5 L7.5,5 C7.224,5 7,5.224 7,5.5 C7,5.639 6.906,6 6.5,6 L5.5,6 C5.125,6 4.996,5.775 5.041,5.502 C5.279,4.084 6.516,3 8,3 C9.654,3 11,4.346 11,6 C11,7.304 10.164,8.416 9,8.828 Z" id="top" fill="#FFF"/></g></g></g></svg>