<svg width="16" height="16" viewBox="0 0 16 16" version="1.1" xmlns="http://www.w3.org/2000/svg" xmlns:xlink="http://www.w3.org/1999/xlink"><title>status-working</title><desc>Created with Sketch.</desc><g id="browserAction---popover" stroke="none" stroke-width="1" fill="none" fill-rule="evenodd" transform="translate(-953.000000, -116.000000)"><g id="popover" transform="translate(937.000000, 69.000000)"><g id="status-working" transform="translate(16.000000, 47.000000)"><path d="M15,0 C14.5,0 10.43,0.0493469243 8,1.69852113 C5.57,0.0493469243 1.5,0 1,0 C0.344,0 0,0.441161503 0,0.986938486 L0,12.8302003 C0,13.3759773 0.469,13.8171388 1,13.8171388 C2.2,13.8171388 5.439,14.0836122 7,15.2481996 C7.1,15.3271547 7.2,15.4159792 7.29,15.5048036 C7.29,15.5048036 7.449,15.6617268 7.644,15.8541798 C7.841,16.0486067 8.158,16.0486067 8.355,15.8541798 L8.71,15.5048036 C8.8,15.4159792 8.9,15.3271547 9,15.2481996 C10.561,14.0836122 14.042,13.8171388 15.242,13.8171388 C15.836,13.8171388 16,13.3759773 16,12.8302003 L16,0.986938486 C16,0.441161503 15.688,0 15,0 Z" id="book" fill="#44C6E3"/><path d="M2.497,3.02200564 C3.331,3.13056888 5.064,3.38322513 6.521,3.78293522 C6.787,3.85498173 7,4.14218083 7,4.41556279 L7,4.93469243 L7,5.50909063 C7,5.78148565 6.79,5.92557867 6.527,5.84070196 C5.016,5.3571021 3.329,5.08372014 2.497,4.98206548 C2.223,4.94850957 2,4.71361821 2,4.44122319 L2,3.4542847 C2,3.18188968 2.223,2.98548892 2.497,3.02200564 Z M6.527,8.80151742 C5.016,8.31791756 3.329,8.0445356 2.497,7.94288094 C2.223,7.90932503 2,7.67443367 2,7.40203864 L2,6.41510016 C2,6.14270514 2.223,5.94630438 2.497,5.9828211 C3.331,6.09138434 5.064,6.34404059 6.521,6.74375067 C6.787,6.81579718 7,7.10299628 7,7.37637824 L7,7.89550789 L7,8.46990609 C7,8.74230111 6.79,8.88639413 6.527,8.80151742 Z M9.479,3.77898746 C10.914,3.38125125 12.663,3.128595 13.503,3.02003177 C13.777,2.98548892 14,3.18188968 14,3.4542847 L14,3.94775394 L14,4.44122319 C14,4.71361821 13.777,4.95936589 13.503,4.99588262 C12.662,5.10641973 10.908,5.37585393 9.471,5.83872808 C9.208,5.92360479 9,5.78148565 9,5.50909063 L9,4.41556279 C9,4.14218083 9.213,3.85300785 9.479,3.77898746 Z M13.503,7.95669807 C12.662,8.06723518 10.908,8.33666939 9.471,8.79954354 C9.208,8.88442025 9,8.74230111 9,8.46990609 L9,7.37637824 C9,7.10398322 9.213,6.81481025 9.479,6.73980292 C10.914,6.34206671 12.663,6.08941046 13.503,5.98084723 C13.777,5.94630438 14,6.14270514 14,6.41510016 L14,7.40203864 C14,7.67443367 13.777,7.92018135 13.503,7.95669807 Z M6.527,11.7623329 C5.016,11.278733 3.329,11.0053511 2.497,10.9036964 C2.223,10.8701405 2,10.6352491 2,10.3628541 L2,9.37591562 C2,9.10352059 2.223,8.90711984 2.497,8.94363656 C3.331,9.05219979 5.064,9.30485605 6.521,9.70456613 C6.787,9.77661264 7,10.0638117 7,10.3371937 L7,11.4307215 C7,11.7031166 6.79,11.8472096 6.527,11.7623329 Z M9,11.4307215 L9,10.3371937 C9,10.0647987 9.212,9.7756257 9.478,9.70160532 C10.914,9.30288217 12.664,9.05022592 13.503,8.94166268 C13.777,8.90711984 14,9.10352059 14,9.37591562 L14,10.3628541 C14,10.6352491 13.777,10.8809968 13.503,10.9175135 C12.662,11.0280506 10.908,11.2974848 9.471,11.760359 C9.208,11.8452357 9,11.7031166 9,11.4307215 Z" id="text" fill="#FFF" fill-rule="nonzero"/></g></g></g></svg>